<?xml version="1.0" standalone="no"?>
<!DOCTYPE svg PUBLIC "-//W3C//DTD SVG 20010904//EN"
 "http://www.w3.org/TR/2001/REC-SVG-20010904/DTD/svg10.dtd">
<svg version="1.0" xmlns="http://www.w3.org/2000/svg"
 width="512.000000pt" height="512.000000pt" viewBox="0 0 512.000000 512.000000"
 preserveAspectRatio="xMidYMid meet">
<metadata>
Created by potrace 1.11, written by Peter Selinger 2001-2013
</metadata>
<g transform="translate(0.000000,512.000000) scale(0.100000,-0.100000)"
fill="#000000" stroke="none">
<path d="M1090 5050 c-8 -5 -33 -10 -54 -10 -22 0 -53 -4 -70 -9 -17 -5 -49
-14 -71 -21 -38 -11 -89 -31 -185 -73 -136 -59 -338 -238 -434 -382 -107 -162
-156 -292 -178 -470 -19 -158 -10 -309 25 -405 9 -25 17 -53 17 -62 0 -10 9
-37 19 -60 10 -24 29 -68 41 -98 36 -89 81 -193 96 -220 8 -14 46 -88 85 -165
39 -77 77 -147 83 -155 7 -8 25 -40 40 -70 16 -30 35 -62 42 -71 8 -8 14 -19
14 -22 0 -4 12 -26 27 -50 15 -23 36 -58 48 -77 43 -74 85 -140 227 -354 219
-328 289 -429 351 -502 20 -25 37 -49 37 -55 0 -22 40 -6 66 27 46 58 274 385
309 443 6 9 41 63 79 121 101 155 132 202 146 229 7 13 16 19 21 14 5 -5 10
-261 12 -573 3 -623 2 -617 68 -740 40 -75 138 -184 212 -234 114 -78 143 -99
161 -116 21 -21 37 7 -220 -380 -164 -248 -163 -246 -149 -286 6 -19 16 -38
21 -43 27 -23 105 -31 317 -31 l225 0 75 114 c41 63 87 136 102 162 44 79 186
298 204 314 9 8 24 27 34 42 l17 28 506 0 c301 0 513 -4 523 -10 10 -5 62 -78
116 -162 223 -346 249 -384 287 -424 22 -23 56 -46 77 -53 47 -13 477 -15 486
-2 4 8 -108 188 -192 306 -16 22 -48 72 -73 110 -24 39 -68 107 -97 152 -54
83 -64 113 -38 113 9 0 59 22 113 49 71 36 112 65 153 108 106 110 175 240
193 363 14 100 12 1888 -2 1980 -6 41 -13 87 -16 101 -2 14 -11 40 -20 57 -9
17 -16 36 -16 43 0 39 -221 309 -254 309 -5 0 -27 15 -50 33 -62 50 -157 110
-196 125 -19 7 -66 24 -105 38 l-69 24 -891 -3 c-629 -2 -903 -6 -935 -15 -41
-10 -47 -9 -62 10 -10 11 -18 31 -18 44 0 13 -4 33 -9 46 -5 13 -15 43 -22 68
-14 52 -109 240 -142 281 -12 15 -38 49 -57 76 -64 87 -191 211 -273 266 -166
112 -350 185 -502 199 -164 16 -260 19 -275 8z m313 -375 c20 -4 40 -11 43
-16 3 -5 13 -9 23 -9 23 0 89 -34 176 -91 64 -43 116 -93 187 -182 34 -42 100
-177 117 -237 7 -25 17 -59 22 -76 12 -39 12 -198 0 -238 -15 -50 -68 -208
-85 -255 -21 -54 -186 -386 -231 -461 -17 -30 -63 -107 -100 -170 -69 -118
-123 -205 -231 -371 -34 -53 -69 -110 -78 -127 -29 -57 -25 -62 -202 216 -32
50 -63 100 -69 110 -5 9 -23 37 -38 61 -15 23 -39 64 -52 90 -14 25 -43 75
-65 111 -21 36 -94 175 -162 310 -112 223 -139 287 -199 486 -12 41 -12 241 1
249 5 3 10 21 10 40 0 19 4 37 10 40 6 3 10 14 10 25 0 43 94 193 175 278 71
76 250 192 296 192 10 0 21 5 24 10 3 6 18 10 33 10 15 0 34 5 42 10 16 11
280 7 343 -5z m3110 -1292 c67 -47 67 -46 67 -514 0 -268 -4 -420 -10 -424 -6
-3 -10 -15 -10 -25 0 -10 -14 -30 -31 -44 l-31 -26 -1115 0 -1115 0 -33 36
c-21 22 -36 51 -40 77 -4 23 -8 186 -8 362 l-1 320 40 85 c23 47 47 101 54
120 7 19 20 41 28 48 13 9 246 12 1091 12 l1075 0 39 -27z m-1963 -1309 c72
-32 101 -64 129 -139 28 -75 26 -119 -8 -190 -34 -73 -58 -96 -135 -131 -70
-32 -125 -30 -207 9 -76 35 -103 72 -135 175 -29 99 40 232 146 279 86 39 118
38 210 -3z m1817 25 c105 -43 136 -66 170 -129 38 -71 48 -116 33 -162 -27
-85 -59 -137 -101 -164 -95 -60 -174 -67 -261 -23 -59 29 -86 56 -115 112 -35
71 -40 130 -13 200 29 76 57 108 122 136 29 13 60 27 68 32 22 12 65 11 97 -2z"/>
<path d="M1051 4260 c-96 -51 -122 -77 -171 -171 -38 -73 -40 -82 -40 -163 0
-81 3 -92 39 -164 53 -105 106 -152 217 -191 164 -58 366 16 440 161 60 117
69 208 33 312 -40 114 -88 166 -206 225 -56 28 -72 31 -150 31 -83 -1 -92 -3
-162 -40z"/>
</g>
</svg>
